<?xml version="1.0" encoding="UTF-8"?>
<svg width="476px" height="289px" viewBox="0 0 476 289" version="1.1" xmlns="http://www.w3.org/2000/svg" xmlns:xlink="http://www.w3.org/1999/xlink">
    <!-- Generator: Sketch 59 (86127) - https://sketch.com -->
    <title>Group 19</title>
    <desc>Created with Sketch.</desc>
    <g id="Page-1" stroke="none" stroke-width="1" fill="none" fill-rule="evenodd">
        <g id="Desktop-HD-Copy-15" transform="translate(-894.000000, -328.000000)">
            <g id="Group-19" transform="translate(894.000000, 328.000000)">
                <g id="Group-42" transform="translate(91.000000, 0.000000)">
                    <g id="XMLID_19_">
                        <path d="M198.6,259 L195.6,225.3 L146.2,225.3 L143.2,259 C142.5,266.8 137.8,274.3 130.4,280.3 L130.4,280.4 L211.4,280.4 L211.4,280.3 C204,274.3 199.3,266.8 198.6,259 Z" id="XMLID_69_" fill="#E1EDF6" fill-rule="nonzero"></path>
                        <polygon id="XMLID_33_" stroke="#1F3969" stroke-width="4" fill="#1F3969" fill-rule="nonzero" opacity="0.28" stroke-linecap="round" stroke-linejoin="round" points="146.2 225.3 144.4 245.5 197.4 245.5 195.6 225.3"></polygon>
                        <path d="M198.6,259 L195.6,225.3 L146.2,225.3 L143.2,259 C142.5,266.8 137.8,274.3 130.4,280.3 L130.4,280.4 L211.4,280.4 L211.4,280.3 C204,274.3 199.3,266.8 198.6,259 Z" id="XMLID_10_"></path>
                        <path d="M328.9,230.3 L12.9,230.3 C6.3,230.3 0.9,224.9 0.9,218.3 L0.9,12.3 C0.9,5.7 6.3,0.3 12.9,0.3 L328.9,0.3 C335.5,0.3 340.9,5.7 340.9,12.3 L340.9,218.3 C340.9,225 335.5,230.3 328.9,230.3 Z" id="XMLID_13_" fill="#FFFFFF" fill-rule="nonzero"></path>
                        <path d="M328.9,230.3 L12.9,230.3 C6.3,230.3 0.9,224.9 0.9,218.3 L0.9,12.3 C0.9,5.7 6.3,0.3 12.9,0.3 L328.9,0.3 C335.5,0.3 340.9,5.7 340.9,12.3 L340.9,218.3 C340.9,225 335.5,230.3 328.9,230.3 Z" id="XMLID_63_" fill="#E1EDF6" fill-rule="nonzero"></path>
                        <path d="M328.9,230.3 L12.9,230.3 C6.3,230.3 0.9,224.9 0.9,218.3 L0.9,12.3 C0.9,5.7 6.3,0.3 12.9,0.3 L328.9,0.3 C335.5,0.3 340.9,5.7 340.9,12.3 L340.9,218.3 C340.9,225 335.5,230.3 328.9,230.3 Z" id="XMLID_4_"></path>
                        <rect id="XMLID_68_" fill="#F6F9FD" fill-rule="nonzero" transform="translate(170.955600, 104.628100) rotate(90.000000) translate(-170.955600, -104.628100) " x="83.6556" y="-48.3719" width="174.6" height="306"></rect>
                        <rect id="XMLID_11_" transform="translate(170.955600, 104.628100) rotate(90.000000) translate(-170.955600, -104.628100) " x="83.6556" y="-48.3719" width="174.6" height="306"></rect>
                        <line x1="157.5" y1="211" x2="184.4" y2="211" id="XMLID_9_" stroke="#3497DC" stroke-width="4" stroke-linecap="round" stroke-linejoin="round"></line>
                    </g>
                </g>
                <g id="XMLID_24_-Copy" transform="translate(164.000000, 32.000000)">
                    <path d="M187.8,144.6 L16,144.6 C12.1,144.6 9,141.4 9,137.6 L9,15 C9,11.1 12.2,8 16,8 L187.8,8 C191.7,8 194.8,11.2 194.8,15 L194.8,137.5 C194.8,141.4 191.7,144.6 187.8,144.6 Z" id="XMLID_179_" fill="#BAC3D4" fill-rule="nonzero" opacity="0.32"></path>
                    <path d="M178.8,137.5 L7,137.5 C3.1,137.5 0,134.3 0,130.5 L0,7.9 C0,4 3.2,0.9 7,0.9 L178.8,0.9 C182.7,0.9 185.8,4.1 185.8,7.9 L185.8,130.4 C185.9,134.3 182.7,137.5 178.8,137.5 Z" id="XMLID_133_" fill="#FFFFFF" fill-rule="nonzero"></path>
                    <path d="M178.8,137.5 L7,137.5 C3.1,137.5 0,134.3 0,130.5 L0,7.9 C0,4 3.2,0.9 7,0.9 L178.8,0.9 C182.7,0.9 185.8,4.1 185.8,7.9 L185.8,130.4 C185.9,134.3 182.7,137.5 178.8,137.5 Z" id="XMLID_25_"></path>
                    <path d="M185.9,22 L97.946006,22 L0,22 L0,8.2 C0,4.2 3.3,0.8 7.4,0.8 L179,0.8 C182.8,0.8 185.9,3.9 185.9,7.7 L185.9,22 Z" id="XMLID_105_" fill="#5E6369" fill-rule="nonzero"></path>
                    <path d="M185.9,22 L0,22 L0,8.2 C0,4.2 3.3,0.8 7.4,0.8 L179,0.8 C182.8,0.8 185.9,3.9 185.9,7.7 L185.9,22 Z" id="XMLID_26_" stroke="#5E6369" stroke-width="4" stroke-linecap="round" stroke-linejoin="round"></path>
                    <g id="XMLID_108_" transform="translate(14.000000, 8.000000)" fill="#FFFFFF" fill-rule="nonzero">
                        <circle id="XMLID_106_" cx="3.9" cy="3.5" r="3.3"></circle>
                        <circle id="XMLID_109_" cx="14.8" cy="3.5" r="3.3"></circle>
                        <circle id="XMLID_120_" cx="25.6" cy="3.5" r="3.3"></circle>
                    </g>
                    <g id="XMLID_127_" transform="translate(119.500000, 87.000000) scale(1, -1) translate(-119.500000, -87.000000) translate(69.000000, 79.000000)" fill="#DADCDE" fill-rule="nonzero">
                        <path d="M96.782881,16 L4.217119,16 C1.89770355,16 0,15.0709677 0,13.9354839 L0,2.06451613 C0,0.929032258 1.89770355,0 4.217119,0 L96.782881,0 C99.1022965,0 101,0.929032258 101,2.06451613 L101,13.9354839 C101,15.0709677 99.1022965,16 96.782881,16 Z" id="XMLID_131_"></path>
                    </g>
                    <g id="XMLID_132_" opacity="0.2" transform="translate(13.000000, 37.000000)" fill="#444E59" fill-rule="nonzero">
                        <path d="M45.9958246,60 L2.00417537,60 C0.901878914,60 0,58.6294416 0,56.9543147 L0,3.04568528 C0,1.37055838 0.901878914,0 2.00417537,0 L45.9958246,0 C47.0981211,0 48,1.37055838 48,3.04568528 L48,56.9543147 C48,58.6294416 47.0981211,60 45.9958246,60 Z" id="XMLID_135_"></path>
                    </g>
                    <g id="XMLID_132_-Copy-2" opacity="0.2" transform="translate(13.000000, 104.000000)" fill="#444E59" fill-rule="nonzero">
                        <path d="M150.444676,19 L6.55532359,19 C2.94989562,19 0,18.5659898 0,18.035533 L0,0.964467005 C0,0.434010152 2.94989562,0 6.55532359,0 L150.444676,0 C154.050104,0 157,0.434010152 157,0.964467005 L157,18.035533 C157,18.5659898 154.050104,19 150.444676,19 Z" id="XMLID_135_"></path>
                    </g>
                    <g id="XMLID_132_-Copy" opacity="0.2" transform="translate(70.000000, 37.000000)" fill="#444E59" fill-rule="nonzero">
                        <path d="M95.8246347,37 L4.17536534,37 C1.87891441,37 0,36.1548223 0,35.1218274 L0,1.87817259 C0,0.845177665 1.87891441,0 4.17536534,0 L95.8246347,0 C98.1210856,0 100,0.845177665 100,1.87817259 L100,35.1218274 C100,36.1548223 98.1210856,37 95.8246347,37 Z" id="XMLID_135_"></path>
                    </g>
                </g>
                <path d="M469.288422,289 L6.71157763,289 C2.98292339,289 0,287.222222 0,285 C0,282.777778 2.98292339,281 6.71157763,281 L469.288422,281 C473.017077,281 476,282.777778 476,285 C476,287.222222 473.017077,289 469.288422,289 Z" id="XMLID_223_" fill="#2FCC71" fill-rule="nonzero" opacity="0.408854167"></path>
                <g id="zoom" transform="translate(259.000000, 67.000000)" fill-rule="nonzero">
                    <path d="M107,147.486369 L130.488578,174.979971 C137.448293,183.142228 149.627284,184.430984 157.891919,177.557483 C166.156555,170.683982 167.461476,158.655859 160.501761,150.493602 L137.013183,123 L107,147.486369 Z" id="Path" fill="#7C8186"></path>
                    <rect id="Rectangle" fill="#5E6369" transform="translate(125.000000, 138.500000) rotate(50.250185) translate(-125.000000, -138.500000) " x="120" y="119" width="10" height="39"></rect>
                    <rect id="Rectangle" fill="#3498DA" transform="translate(111.500000, 122.500000) rotate(50.250185) translate(-111.500000, -122.500000) " x="101" y="110" width="21" height="25"></rect>
                    <path d="M138.459704,124.034202 L108.949386,149.284863 C105.955451,151.896987 101.251042,151.461497 98.684927,148.414292 C96.1188124,145.366678 96.5466318,140.577922 99.5401649,137.965798 L129.050483,112.715137 C132.044417,110.103013 136.748827,110.538503 139.314942,113.585708 C141.881056,116.632914 141.453638,121.422078 138.459704,124.034202 Z" id="Path" fill="#7C8186"></path>
                    <path d="M60.4421141,132.699437 C24.0952042,129.238356 -3.1649782,96.7894529 0.296497041,60.4466812 C2.02743749,42.7080826 10.2484919,26.6998217 24.0952042,15.4510038 C37.9419165,4.2021858 54.8168619,-1.42242599 72.5578859,0.308317397 C108.904796,3.76939855 136.164978,36.2183019 132.703503,72.5610736 C129.241622,109.336227 96.789024,136.160519 60.4421141,132.699437 Z M71.259782,15.4505981 C57.4134754,14.152642 44.4324361,18.4792977 33.6147682,27.1322033 C23.2299368,35.785109 16.7394172,48.3322887 15.4413133,61.7442317 C12.8451054,89.8664794 33.6147682,114.960433 61.740218,117.556345 C89.8656678,120.152258 114.962479,99.3849596 117.558687,71.2627119 C120.154895,43.1404642 99.3852318,18.0465104 71.259782,15.4505981 Z" id="Shape" fill="#99CBED"></path>
                </g>
                <g id="check-copy-2" transform="translate(281.000000, 104.000000)" fill="#61CD72" fill-rule="nonzero">
                    <path d="M34.4472375,68.5942172 C33.5885167,69.4579844 32.4169222,69.939911 31.1999103,69.939911 C29.9828984,69.939911 28.8113038,69.4579844 27.952583,68.5942172 L2.01854067,42.6559696 C-0.67284689,39.964582 -0.67284689,35.6003289 2.01854067,32.9139878 L5.26586792,29.6658194 C7.9580967,26.9744318 12.3173033,26.9744318 15.0086909,29.6658194 L31.1999103,45.8578798 L74.9509383,2.10601077 C77.6431669,-0.585376794 82.0065789,-0.585376794 84.6937613,2.10601077 L87.9410885,5.35417923 C90.6324761,8.04556679 90.6324761,12.4089787 87.9410885,15.096161 L34.4472375,68.5942172 Z" id="Path"></path>
                </g>
            </g>
        </g>
    </g>
</svg>